<?xml version="1.0" encoding="UTF-8" standalone="no"?>
<!-- Created with Inkscape (http://www.inkscape.org/) -->

<svg
   width="200mm"
   height="230mm"
   viewBox="0 0 200 230"
   version="1.1"
   id="svg5"
   inkscapeExport-filename="bitmap2.svg"
   inkscapeExport-xdpi="42.760944"
   inkscapeExport-ydpi="42.760944"
   xmlnsInkscape="http://www.inkscape.org/namespaces/inkscape"
   xmlnsSodipodi="http://sodipodi.sourceforge.net/DTD/sodipodi-0.dtd"
   xmlns="http://www.w3.org/2000/svg"
   xmlnsSvg="http://www.w3.org/2000/svg">
  <sodipodi:namedview
     id="namedview7"
     pagecolor="#ffffff"
     bordercolor="#000000"
     borderopacity="0.25"
     inkscapeShowpageshadow="2"
     inkscapePageopacity="0.0"
     inkscapePagecheckerboard="0"
     inkscapeDeskcolor="#d1d1d1"
     inkscapeDocument-units="mm"
     showgrid="false" />
  <defs
     id="defs2" />
  <g
     inkscapeLabel="Layer 1"
     inkscapeGroupmode="layer"
     id="layer1">
    <circle
       id="path171"
       style="fill:#000000;stroke:#000000;stroke-width:0.264583"
       cx="33.188141"
       cy="44.363739"
       r="0.045108449" />
    <path
       style="opacity:1;fill:#d9dcd5;fill-opacity:1;stroke-width:0.264583"
       id="path1709"
       d="M 66.526809,-0.29003852 C 65.845258,2.7326296 65.03817,5.7224231 64.368227,8.7483827 c -0.93232,4.3731263 -1.219576,8.8087743 -0.909439,13.2601033 0.382696,3.508501 1.381442,6.920595 3.131018,9.997821 0.449773,0.791077 0.962805,1.544473 1.444207,2.316707 3.67592,5.280332 8.017034,10.061371 12.251674,14.893367 3.082158,3.522154 6.260192,6.97394 9.105236,10.695672 1.782886,2.332276 2.158661,2.985053 3.774411,5.418056 2.348073,3.723687 4.631594,7.626244 5.640445,11.961212 0.158075,0.679235 0.230338,1.375624 0.345506,2.063437 0.04404,2.622378 0.04484,5.058865 -2.713717,6.359139 C 94.754069,86.50743 92.472853,86.6533 90.704986,86.894259 81.00406,86.975174 71.398809,85.275713 61.846248,83.769924 56.99576,83.091429 52.025102,82.415353 47.143722,83.2522 c -0.679595,0.11651 -1.342152,0.316757 -2.013227,0.475137 -2.900053,0.770905 -5.62568,2.061625 -7.807436,4.154278 -0.429327,0.411795 -0.812454,0.869196 -1.218682,1.303795 -2.924521,3.40505 -4.870873,7.44093 -6.672257,11.51112 -2.478603,5.76521 -4.588694,11.67033 -6.562384,17.62363 -2.114737,6.65604 -4.161342,13.35534 -5.655677,20.18327 -0.349011,1.5947 -0.646582,3.20023 -0.969873,4.80035 -1.877593,10.18871 -2.357968,20.55792 -2.690526,30.89105 -0.178976,7.0228 -0.07895,14.05714 0.247433,21.07461 0.09935,4.47325 0.959801,8.86622 1.848553,13.23483 0.459438,2.23333 0.843972,4.47877 1.519554,6.65913 0,0 9.72506,4.56409 9.72506,4.56409 v 0 c -0.772663,-2.11929 -1.128197,-4.33593 -1.575765,-6.54122 -0.89772,-4.31848 -1.806954,-8.6605 -1.921799,-13.08649 -0.358146,-6.99008 -0.438995,-14.00099 -0.286527,-20.99773 0.3163,-10.27813 0.771683,-20.59292 2.607343,-30.73232 0.317554,-1.58943 0.609254,-3.18425 0.952662,-4.7683 1.474415,-6.80107 3.510783,-13.47204 5.610635,-20.10059 1.958986,-5.92239 4.050726,-11.79749 6.512068,-17.53326 1.746748,-3.95956 3.620296,-7.89825 6.486226,-11.193593 1.015201,-1.0551 1.240816,-1.383482 2.429219,-2.24581 1.855499,-1.346385 4.041778,-2.118923 6.245302,-2.672209 0.648208,-0.125844 1.290703,-0.285888 1.944624,-0.377529 4.846679,-0.679215 9.741431,0.06178 14.540065,0.740061 9.608622,1.492019 19.29593,3.247726 29.055467,2.853531 2.25561,-0.402334 4.0268,-0.497364 6.04449,-1.64981 0.66104,-0.377568 1.23868,-0.908161 1.73409,-1.486177 1.46309,-1.707068 1.4797,-3.722907 1.52187,-5.846152 -0.0956,-0.728204 -0.14264,-1.464471 -0.28695,-2.184611 -0.88916,-4.43711 -3.14965,-8.460774 -5.50333,-12.261305 -1.55219,-2.399189 -2.01747,-3.206432 -3.736245,-5.506178 -2.809677,-3.75939 -5.99017,-7.223643 -9.083943,-10.745792 -4.225562,-4.80844 -8.538548,-9.571897 -12.314748,-14.746896 -0.494138,-0.743593 -1.017166,-1.468781 -1.482418,-2.230781 -1.791782,-2.934632 -2.88491,-6.19841 -3.318197,-9.603433 -0.38525,-4.443017 -0.130321,-8.600837 0.763936,-12.979363 0.659223,-3.018877 1.469917,-5.9970364 2.144041,-9.011438 0,0 -9.449567,-5.11013352 -9.449567,-5.11013352 z" />
    <path
       style="opacity:1;fill:#d9dcd5;fill-opacity:1;stroke-width:0.264583"
       id="path1713"
       d="m 175.63434,1.4482604 c -2.00602,4.7835337 -3.93516,9.6003876 -5.78558,14.4466796 -1.98388,5.157996 -3.73622,10.395729 -5.29217,15.697008 -1.43987,4.718471 -2.36771,9.556991 -3.19919,14.411817 -0.99476,5.069152 -0.91553,10.12617 -0.5515,15.24671 0.39481,4.898535 1.80474,9.59458 3.40609,14.211479 1.85099,5.183257 3.69553,10.37 5.39166,15.606274 1.57897,4.75716 2.4733,9.674592 2.80109,14.666202 0.19841,5.14159 -1.1792,10.16157 -2.54194,15.06866 -1.32748,4.78017 -1.93032,6.59573 -3.39488,11.3094 -2.77754,9.11994 -5.7916,18.1932 -7.98905,27.47877 -0.43944,1.85693 -0.80422,3.73075 -1.20633,5.59613 -1.56303,7.893 -2.87015,15.86279 -3.32909,23.90569 -0.0799,1.39968 -0.10446,2.80196 -0.15669,4.20294 -0.1126,6.08885 0.50583,12.17142 1.44712,18.18037 0.52268,3.41364 1.44826,6.73422 2.38855,10.04946 0.70078,2.46767 1.43101,4.92672 2.16485,7.38472 0.27351,0.89787 0.49522,1.80921 0.868,2.67252 0,0 9.80062,4.39948 9.80062,4.39948 v 0 c -0.50786,-0.75652 -0.72997,-1.59948 -0.95902,-2.47512 -0.73524,-2.45284 -1.46434,-4.90718 -2.17286,-7.36782 -0.91106,-3.28973 -1.92106,-6.55489 -2.44179,-9.93913 -0.97793,-5.94224 -1.6065,-11.96601 -1.54074,-17.99379 0.0457,-1.38832 0.0632,-2.77786 0.13707,-4.16496 0.42601,-7.9991 1.71862,-15.92609 3.26074,-23.77616 0.39495,-1.8521 0.75159,-3.71278 1.18485,-5.55628 2.17924,-9.27255 5.19458,-18.32898 7.96425,-27.43327 1.51239,-4.8558 2.03897,-6.423 3.41646,-11.34895 1.39998,-5.0064 2.82436,-10.12524 2.70024,-15.37178 -0.26353,-5.06884 -1.11456,-10.07099 -2.68275,-14.909457 -1.66944,-5.252294 -3.52626,-10.443202 -5.37902,-15.633198 -1.61638,-4.532905 -3.07958,-9.135972 -3.52986,-13.955693 -0.38412,-5.019067 -0.54817,-10.041136 0.43197,-15.014856 0.82025,-4.816157 1.7117,-9.621258 3.14021,-14.302292 1.54245,-5.276173 3.27619,-10.490329 5.25094,-15.622193 1.84107,-4.829531 3.76471,-9.627855 5.75737,-14.3962924 0,0 -9.35962,-5.2730682 -9.35962,-5.2730682 z" />
  </g>
</svg>
