<?xml version="1.0" encoding="UTF-8" standalone="no"?>
<!-- Created with Inkscape (http://www.inkscape.org/) -->

<svg
   width="120.00001mm"
   height="200.00002mm"
   viewBox="0 0 120.00001 200.00002"
   version="1.1"
   id="svg5"
   xmlns="http://www.w3.org/2000/svg"
   xmlnsSvg="http://www.w3.org/2000/svg">
  <defs
     id="defs2" />
  <g
     id="layer1"
     transform="translate(-29.999999)">
    <circle
       id="path171"
       style="fill:#000000;stroke:#000000;stroke-width:0.264583"
       cx="33.188141"
       cy="44.363739"
       r="0.045108449" />
    <path
       style="opacity:1;fill:#d9dcd5;fill-opacity:1;stroke-width:0.264583"
       id="path1670"
       d="m 59.931691,-1.648523 c -0.741733,4.0512693 -1.139108,8.1373863 -1.358069,12.246327 -0.0079,4.30364 0.261299,8.815106 2.125191,12.777516 0.39964,0.849585 0.903878,1.645912 1.355818,2.468868 0.578643,0.832037 1.120833,1.69065 1.735934,2.496108 1.291455,1.691129 2.994506,3.538704 4.413384,5.117102 2.448605,2.723893 4.87575,5.448184 7.235669,8.249679 3.555958,4.408215 6.858524,9.117478 9.111049,14.342052 0.411165,0.953667 0.748755,1.937398 1.123132,2.906096 1.720004,4.96494 2.628903,10.224376 2.627162,15.484194 -2.65e-4,0.995037 -0.07799,1.988545 -0.116993,2.982817 -0.117729,2.501496 -0.690346,4.933802 -1.534626,7.283363 -0.222036,0.617913 -0.432406,1.245592 -0.741429,1.824919 -0.741412,1.389933 -1.522129,2.115973 -2.56736,3.286439 -3.073898,2.821623 -6.702248,4.921883 -10.198068,7.161043 -2.674681,1.713201 -4.47298,2.887994 -7.143994,4.62355 -4.707649,3.08498 -9.047106,6.62632 -12.771186,10.85661 -2.399112,2.72522 -2.871628,3.54116 -4.971335,6.47692 -3.064889,4.67635 -5.751134,9.61525 -8.01179,14.73078 -1.32996,3.0095 -1.890966,4.66522 -3.021785,7.72085 -2.147485,7.00666 -3.765674,14.20111 -4.55644,21.49382 -0.14932,1.37707 -0.23197,2.76055 -0.347956,4.14083 -0.349279,5.34784 -0.316545,10.73104 0.119571,16.07333 0.262064,1.97564 0.119464,1.02334 0.421581,2.85784 0,0 9.653217,4.71414 9.653217,4.71414 v 0 c -0.318603,-1.79163 -0.163943,-0.86523 -0.460062,-2.77984 -0.507995,-5.28079 -0.496417,-10.61857 -0.202423,-15.91058 0.108006,-1.36502 0.182259,-2.73312 0.324017,-4.09505 0.751494,-7.21989 2.347685,-14.34017 4.441944,-21.28192 1.102368,-2.99247 1.678276,-4.69437 2.975581,-7.63845 2.229197,-5.05888 4.883288,-9.94251 7.914981,-14.56341 2.062994,-2.87511 2.535103,-3.68769 4.896401,-6.35196 3.683714,-4.15637 7.994284,-7.60837 12.635904,-10.64028 3.247874,-2.10861 3.902371,-2.54005 7.139011,-4.61579 3.573061,-2.29151 7.273306,-4.463726 10.357535,-7.416791 1.152988,-1.322523 1.915086,-2.042398 2.748008,-3.597032 0.322657,-0.602234 0.545478,-1.253723 0.780444,-1.895271 0.889878,-2.429719 1.525466,-4.945369 1.670158,-7.537979 0.0515,-1.018765 0.14305,-2.036294 0.154493,-3.056297 C 97.94841,73.933655 97.083265,68.56396 95.414781,63.485241 95.051847,62.491685 94.727031,61.483366 94.325979,60.504575 92.14841,55.190096 88.878226,50.386628 85.327648,45.906435 82.984006,43.081561 80.57304,40.338287 78.1081,37.618595 76.905667,36.29189 74.780322,34.015166 73.6475,32.612131 c -0.625208,-0.77434 -1.186114,-1.598464 -1.779172,-2.397694 -1.121574,-1.853874 -1.653887,-2.502601 -2.36011,-4.499417 -1.150651,-3.253426 -1.368906,-6.775277 -1.387631,-10.191443 0.19771,-4.072659 0.562864,-8.1227688 1.30116,-12.1375644 0,0 -9.490056,-5.0345356 -9.490056,-5.0345356 z" />
    <path
       style="opacity:1;fill:#d9dcd5;fill-opacity:1;stroke-width:0.264583"
       id="path1672"
       d="m 112.54742,-1.9100143 c -0.95529,2.43344458 -1.99276,4.8472801 -2.69,7.3725083 -0.26765,0.9693442 -0.47476,1.9543919 -0.71215,2.9315876 -0.81553,4.3273054 -1.30608,8.7224574 -1.10731,13.1310984 0.11122,2.466753 0.28745,3.123183 0.67746,5.535794 1.36368,6.119154 3.83853,11.917506 6.06538,17.757839 3.15452,8.027342 5.94367,16.189986 8.69767,24.361131 2.40243,7.043923 4.87895,14.061461 6.93149,21.217038 1.21859,4.687425 2.00522,9.489811 2.12537,14.337908 0.0807,3.25436 -0.0631,4.05483 -0.31315,7.26968 -0.75702,7.49298 -3.37457,14.58803 -5.74559,21.68121 -1.94157,6.0158 -3.76125,12.08112 -5.19334,18.24117 -1.04854,4.51025 -1.18328,5.57847 -2.00392,10.12321 -0.9573,6.43875 -1.72816,12.94234 -1.68411,19.46421 0.0261,3.86373 0.21971,4.93244 0.5993,8.71821 0.53067,4.75319 1.51655,9.43897 2.69785,14.06827 0,0 9.69256,4.63272 9.69256,4.63272 v 0 c -1.20653,-4.5784 -2.2145,-9.21654 -2.76825,-13.92376 -0.39945,-3.67351 -0.61326,-4.84688 -0.66082,-8.59628 -0.0821,-6.47088 0.68037,-12.92627 1.60727,-19.31706 0.80117,-4.49255 0.94079,-5.60101 1.96958,-10.05918 1.41597,-6.13603 3.22514,-12.17654 5.15344,-18.16809 2.39905,-7.17188 5.04989,-14.34136 5.86786,-21.90965 0.27827,-3.25317 0.43302,-4.10554 0.37994,-7.40032 -0.0792,-4.91515 -0.82845,-9.789359 -2.02074,-14.551971 -2.02084,-7.17864 -4.48996,-14.211424 -6.90947,-21.263675 -2.75383,-8.181602 -5.5216,-16.362773 -8.67974,-24.399526 -2.20986,-5.794105 -4.65591,-11.538643 -6.15558,-17.568486 -0.41453,-2.302711 -0.61536,-3.027553 -0.75173,-5.386678 -0.25008,-4.326049 0.21713,-8.640736 0.98324,-12.894102 0.22521,-0.954826 0.41981,-1.917394 0.67563,-2.864479 0.66908,-2.4770348 1.69597,-4.832993 2.60744,-7.2247993 0,0 -9.33558,-5.315528 -9.33558,-5.315528 z" />
  </g>
</svg>
